<svg xmlns="http://www.w3.org/2000/svg" viewBox="0 0 118 16.25"><defs><style>.cls-171{opacity:0.7;}.cls-172{fill:#55ae9e;}</style></defs><g id="圖層_2" data-name="圖層 2"><g id="line"><g id="Group_687" data-name="Group 687" class="cls-1"><g id="Group_686" data-name="Group 686"><g id="Group_685" data-name="Group 685"><g id="Group_681" data-name="Group 681"><path id="Path_27022" data-name="Path 27022" class="cls-2" d="M6.43,4.18,0,4.41l2.27,1.4L.1,7.38l2.26,1.4L.2,10.34l2.26,1.4L.3,13.3l2.26,1.39L.4,16.25,6.82,16l.58,0L7,4.16Z"/></g><g id="Group_682" data-name="Group 682"><path id="Path_27023" data-name="Path 27023" class="cls-2" d="M8.63,4.1q10.21,5.09,20.2,11.11l10.55-.39c5.43-4,11.72-8.34,18.24-12.51Z"/><path id="Path_27024" data-name="Path 27024" class="cls-2" d="M57.62,2.31c-6.52,4.17-12.81,8.5-18.23,12.51L60.72,14l-.4-11.83Z"/><path id="Path_27025" data-name="Path 27025" class="cls-2" d="M8.63,4.1,7,4.16,7.39,16l21.44-.78Q18.86,9.18,8.63,4.1Z"/></g><g id="Group_683" data-name="Group 683"><path id="Path_27026" data-name="Path 27026" class="cls-2" d="M58.91,2.15q10.22,5.08,20.2,11.11l10.55-.39c5.43-4,11.72-8.34,18.24-12.52Z"/><path id="Path_27027" data-name="Path 27027" class="cls-2" d="M107.9.35c-6.52,4.18-12.81,8.51-18.24,12.52L111,12.09,110.6.26Z"/><path id="Path_27028" data-name="Path 27028" class="cls-2" d="M58.91,2.15l-1.63.06L57.67,14l21.44-.78Q69.13,7.23,58.91,2.15Z"/></g><g id="Group_684" data-name="Group 684"><path id="Path_27029" data-name="Path 27029" class="cls-2" d="M115.44,1.56,117.61,0,114.3.12l-3.7.14.4,11.83,3.69-.14,3.31-.12-2.27-1.4,2.17-1.55-2.26-1.4,2.16-1.56-2.26-1.4L117.7,3Z"/></g></g></g></g></g></g></svg>