<svg xmlns="http://www.w3.org/2000/svg" viewBox="0 0 144.67 190.83"><defs><style>.cls-1{opacity:0.8;}.cls-2,.cls-4{opacity:0.5;}.cls-3{fill:#233330;}.cls-4{fill:#040000;}.cls-10,.cls-4,.cls-9{isolation:isolate;}.cls-5{fill:none;stroke:#493c26;stroke-miterlimit:10;stroke-width:1.04px;}.cls-10,.cls-6{fill:#493c26;}.cls-7{fill:#a0d8e7;}.cls-8{fill:#fff;}.cls-9{fill:#e0766b;opacity:0.7;}.cls-10{opacity:0.3;}</style></defs><g id="圖層_2" data-name="圖層 2"><g id="pencil"><g id="phone" class="cls-1"><g id="Group_707" data-name="Group 707"><g id="Group_706" data-name="Group 706"><g id="Group_703" data-name="Group 703" class="cls-2"><path id="Path_27038" data-name="Path 27038" class="cls-3" d="M143.3,16.72c-.32-8.22-6.45-15-14.67-15.43C91.45-.6,54.18,1.51,17,2.11A15.38,15.38,0,0,0,1.72,17.48c.69,64.46-2.57,113.75-.5,171.66l14.47-.37c.35-50.35-2.44-101.43-2.07-151.7,40.77-.09,76.48-2.09,117.2,1,2.43,47.24-.2,103.9-.13,152.64l12.59.12C142.37,144.69,145.61,74.79,143.3,16.72Z"/><path id="Path_27039" data-name="Path 27039" class="cls-4" d="M143.3,16.72c-.32-8.22-6.45-15-14.67-15.43C91.45-.6,54.18,1.51,17,2.11A15.38,15.38,0,0,0,1.72,17.48c.69,64.46-2.57,113.75-.5,171.66l14.47-.37c.35-50.35-2.44-101.43-2.07-151.7,40.77-.09,76.48-2.09,117.2,1,2.43,47.24-.2,103.9-.13,152.64l12.59.12C142.37,144.69,145.61,74.79,143.3,16.72Z"/></g><path id="Path_27040" data-name="Path 27040" class="cls-5" d="M15.69,188.77c.36-50.35-2.43-101.43-2.06-151.7,40.77-.1,76.47-2.09,117.2,1,2.42,47.24-.2,103.9-.13,152.64"/><path id="Path_27041" data-name="Path 27041" class="cls-5" d="M143.29,190.82c-.92-46.13,2.32-116,0-174.1-.33-8.22-6.46-15-14.68-15.43C91.45-.6,54.18,1.51,17,2.11A15.38,15.38,0,0,0,1.72,17.48c.69,64.46-2.57,113.75-.5,171.66"/><path id="Path_27043" data-name="Path 27043" class="cls-6" d="M85.45,23.5C77.62,23.32,69.87,23.12,62,23a1.81,1.81,0,0,1-1.77-1.8V18.07a1.81,1.81,0,0,1,1.8-1.8h0c7.7.14,15.42.23,23.12.37A1.79,1.79,0,0,1,87,18.32c.08,1.05.22,2.15.3,3.21a1.8,1.8,0,0,1-1.65,2Z"/><path id="Path_27044" data-name="Path 27044" class="cls-7" d="M33,111a3.94,3.94,0,0,0-4.29,3.55,4,4,0,0,0,1.24,3.26c2.6,2.43,7.24.8,7.21-3V111Z"/><path id="Path_27045" data-name="Path 27045" class="cls-7" d="M113.74,113.09a3.94,3.94,0,0,1,3,6.81c-2.6,2.43-7.24.8-7.21-3v-3.82Z"/><path id="Path_27057" data-name="Path 27057" class="cls-8" d="M112.32,75.54a.83.83,0,0,1,.05-.82,1.1,1.1,0,0,1,1.13-.54,1,1,0,0,1,.82.93C114.35,76.2,112.78,76.43,112.32,75.54Z"/><path id="Path_27058" data-name="Path 27058" class="cls-8" d="M112.23,79a.85.85,0,0,1,.06-.82,1.1,1.1,0,0,1,1.13-.54,1,1,0,0,1,.82.93C114.27,79.7,112.7,79.93,112.23,79Z"/><path id="Path_27059" data-name="Path 27059" class="cls-8" d="M112.15,82.54a.85.85,0,0,1,.06-.82,1.11,1.11,0,0,1,1.14-.54,1,1,0,0,1,.81.93C114.19,83.2,112.62,83.43,112.15,82.54Z"/></g><path id="Path_27061" data-name="Path 27061" class="cls-6" d="M48.88,21A2.35,2.35,0,0,1,49,18.79a3,3,0,0,1,3-1.44,2.73,2.73,0,0,1,2.19,2.5C54.33,22.76,50.12,23.37,48.88,21Z"/></g><path id="Path_27062" data-name="Path 27062" class="cls-5" d="M27.23,187.56c7.44-9.81,19.57-25.7,27-35.5,2.58-3.4,5.3-6.93,9.11-8.85s9.06-1.75,11.74,1.58c3.29,4.08,1.2,10.13-1.3,14.73C68,170.2,60.26,179.28,52,190"/><path id="Path_27063" data-name="Path 27063" class="cls-9" d="M66.35,161.29a25.66,25.66,0,0,0,5.16-5.6,9.14,9.14,0,0,0,1.25-7.3C72,146,69.53,144,67,144.35a7.51,7.51,0,0,0-4.56,2.3c-1.63,1.71-4.91,5.51-4.91,5.51C59.55,155.58,63.37,158.67,66.35,161.29Z"/><path id="Path_27064" data-name="Path 27064" class="cls-5" d="M38.59,178.28l7.26,6.11"/><path id="Path_27065" data-name="Path 27065" class="cls-10" d="M81.54,152.41a9.09,9.09,0,0,0-6-7c2.69,4.06.68,9.77-1.71,14.16-5.7,10.49-13.37,20.12-21.5,30.59,3.64-.06,6.91,0,10.55-.11,6.15-8.24,12.82-17.25,16.78-26.67C81.08,159.86,82.24,156.09,81.54,152.41Z"/></g></g></g></svg>