<svg xmlns="http://www.w3.org/2000/svg" viewBox="0 0 149.43 125.01"><defs><style>.cls-1{opacity:0.85;}.cls-2{opacity:0.7;}.cls-3{fill:#f0a457;}.cls-4{fill:#040000;opacity:0.5;isolation:isolate;}.cls-5,.cls-6{fill:none;}.cls-5,.cls-6,.cls-7{stroke:#493c26;stroke-miterlimit:10;}.cls-5,.cls-7{stroke-width:1.28px;}.cls-6{stroke-width:6.88px;}.cls-7{fill:#fff;}.cls-8{fill:#493c26;}</style></defs><g id="圖層_2" data-name="圖層 2"><g id="pencil"><g id="box"><g id="行李箱" class="cls-1"><g id="Group_676" data-name="Group 676" class="cls-2"><path id="Path_27010" data-name="Path 27010" class="cls-3" d="M4.45,25.62c.1,23.25-.1,75.48,0,98.73,48.05,1.46,96.27,0,144.38,0,.44-24.1.15-74,.6-98.09Z"/><path id="Path_27011" data-name="Path 27011" class="cls-4" d="M4.45,25.62c.1,23.25-.1,75.48,0,98.73,48.05,1.46,96.27,0,144.38,0,.44-24.1.15-74,.6-98.09Z"/></g><path id="Path_27012" data-name="Path 27012" class="cls-5" d="M.67,22.13c.1,23.26-.1,75.48,0,98.73,48.05,1.46,96.27,0,144.38,0,.44-24.1.15-74,.6-98.09Z"/><path id="Path_27013" data-name="Path 27013" class="cls-6" d="M125.48,22.65l1.11,100.56"/><path id="Path_27014" data-name="Path 27014" class="cls-6" d="M18.43,20.54,17.14,122.7"/><g id="Group_679" data-name="Group 679"><g id="Group_677" data-name="Group 677"><path id="Path_27015" data-name="Path 27015" class="cls-5" d="M59.18,8.92v1.55l.22,12"/><line id="Line_221" data-name="Line 221" class="cls-5" x1="53.3" y1="22.43" x2="53.08" y2="11.32"/></g><g id="Group_678" data-name="Group 678"><line id="Line_222" data-name="Line 222" class="cls-5" x1="93.83" y1="11.32" x2="93.83" y2="22.28"/><line id="Line_223" data-name="Line 223" class="cls-5" x1="87.72" y1="22.28" x2="87.72" y2="8.92"/></g><path id="Path_27016" data-name="Path 27016" class="cls-6" d="M46.52,8.92a69.41,69.41,0,0,1,53.25-.34"/></g><path id="Path_27017" data-name="Path 27017" class="cls-6" d="M18.17,55.49A28.69,28.69,0,0,1,5.92,79.41"/><path id="Path_27018" data-name="Path 27018" class="cls-7" d="M22.08,55.46c0-3.69,0-7,0-10.72a60.79,60.79,0,0,0-8.21.1Q14,49.93,13.79,55A56.06,56.06,0,0,0,22.08,55.46Z"/><path id="Path_27019" data-name="Path 27019" class="cls-8" d="M16.7,51.7a2.47,2.47,0,0,1,.21-.75.83.83,0,0,1,.61-.45.82.82,0,0,1,.79.51,2.43,2.43,0,0,1,.19,1l.3,5.2a3.92,3.92,0,0,1-2,0c-.38-.23-.14-.74-.13-1.1A42.68,42.68,0,0,1,16.7,51.7Z"/><path id="Path_27020" data-name="Path 27020" class="cls-7" d="M129.94,55.46c0-3.69,0-7,0-10.72a60.79,60.79,0,0,0-8.21.1q.15,5.08-.09,10.16A56.06,56.06,0,0,0,129.94,55.46Z"/><path id="Path_27021" data-name="Path 27021" class="cls-8" d="M124.56,51.7a2.47,2.47,0,0,1,.21-.75.83.83,0,0,1,.62-.45.81.81,0,0,1,.78.51,2.43,2.43,0,0,1,.19,1l.3,5.2a3.92,3.92,0,0,1-2,0c-.38-.23-.14-.74-.13-1.1A42.68,42.68,0,0,1,124.56,51.7Z"/></g></g></g></g></svg>