<svg xmlns="http://www.w3.org/2000/svg" xmlns:xlink="http://www.w3.org/1999/xlink" width="26.44" height="27.447" viewBox="0 0 26.44 27.447">
  <defs>
    <clipPath id="clip-path">
      <path id="Shape" d="M1.183,15.423a1.194,1.194,0,0,0,.155-.015,1.173,1.173,0,0,0,.433-.164,1.349,1.349,0,0,0,.181-.142l6.862-6.61a1.118,1.118,0,0,0,.1-.113,1.1,1.1,0,0,0,.122-.193,1.073,1.073,0,0,0,0-.946,1.1,1.1,0,0,0-.122-.193,1.118,1.118,0,0,0-.1-.113L1.952.323a1.135,1.135,0,0,0-.118-.1,1.17,1.17,0,0,0-.5-.208,1.192,1.192,0,0,0-.389,0,1.179,1.179,0,0,0-.3.091A1.113,1.113,0,0,0,.006.989a1.067,1.067,0,0,0,.048.446,1.089,1.089,0,0,0,.179.332,1.118,1.118,0,0,0,.1.113L6.388,7.712.335,13.543.282,13.6a1.1,1.1,0,0,0-.094.12,1.083,1.083,0,0,0-.155.343,1.065,1.065,0,0,0-.032.3,1.106,1.106,0,0,0,.582.923,1.175,1.175,0,0,0,.366.125,1.194,1.194,0,0,0,.155.015Z" fill="#fff"/>
    </clipPath>
  </defs>
  <g id="Group_876" data-name="Group 876" transform="translate(-816.365 -515)">
    <g id="Icon" transform="translate(842.805 515) rotate(90)">
      <path id="Shape-2" data-name="Shape" d="M0,0H27.447V26.44H0Z" transform="translate(0 0)" fill="#1c1b1b"/>
      <g id="Group_16" data-name="Group 16" transform="translate(9.677 5.892)">
        <path id="Shape-3" data-name="Shape" d="M1.183,15.423a1.194,1.194,0,0,0,.155-.015,1.173,1.173,0,0,0,.433-.164,1.349,1.349,0,0,0,.181-.142l6.862-6.61a1.118,1.118,0,0,0,.1-.113,1.1,1.1,0,0,0,.122-.193,1.073,1.073,0,0,0,0-.946,1.1,1.1,0,0,0-.122-.193,1.118,1.118,0,0,0-.1-.113L1.952.323a1.135,1.135,0,0,0-.118-.1,1.17,1.17,0,0,0-.5-.208,1.192,1.192,0,0,0-.389,0,1.179,1.179,0,0,0-.3.091A1.113,1.113,0,0,0,.006.989a1.067,1.067,0,0,0,.048.446,1.089,1.089,0,0,0,.179.332,1.118,1.118,0,0,0,.1.113L6.388,7.712.335,13.543.282,13.6a1.1,1.1,0,0,0-.094.12,1.083,1.083,0,0,0-.155.343,1.065,1.065,0,0,0-.032.3,1.106,1.106,0,0,0,.582.923,1.175,1.175,0,0,0,.366.125,1.194,1.194,0,0,0,.155.015Z" fill="#fff"/>
        <g id="Mask_Group_16" data-name="Mask Group 16" clip-path="url(#clip-path)">
          <g id="Icon_Fill" data-name="Icon Fill" transform="translate(-10.293 -5.508)">
            <rect id="BG" width="27.447" height="26.44" fill="#fff"/>
          </g>
        </g>
      </g>
    </g>
  </g>
</svg>
